<?xml version="1.0" encoding="UTF-8" standalone="no"?>
<svg
   xmlns:dc="http://purl.org/dc/elements/1.1/"
   xmlns:cc="http://creativecommons.org/ns#"
   xmlns:rdf="http://www.w3.org/1999/02/22-rdf-syntax-ns#"
   xmlns:svg="http://www.w3.org/2000/svg"
   xmlns="http://www.w3.org/2000/svg"
   xmlns:sodipodi="http://sodipodi.sourceforge.net/DTD/sodipodi-0.dtd"
   xmlns:inkscape="http://www.inkscape.org/namespaces/inkscape"
   version="1.1"
   xml:space="preserve"
   height="32"
   width="32"
   enable-background="new 0 0 595.275 311.111"
   y="0px"
   x="0px"
   viewBox="0 0 32 31.999997"
   id="svg6"
   sodipodi:docname="favicon.svg"
   inkscape:version="0.92.0 r15299"
   inkscape:export-filename="C:\Users\livei_000\Pictures\themeMSHE\logo\LeCloud mshe - mshe logo\favicon.png"
   inkscape:export-xdpi="96"
   inkscape:export-ydpi="96"><metadata
     id="metadata12"><rdf:RDF><cc:Work
         rdf:about=""><dc:format>image/svg+xml</dc:format><dc:type
           rdf:resource="http://purl.org/dc/dcmitype/StillImage" /><dc:title /></cc:Work></rdf:RDF></metadata><defs
     id="defs10"><mask
       maskUnits="userSpaceOnUse"
       id="mask4555"><circle
         mask="none"
         r="29.802492"
         cy="18.108093"
         cx="49.723209"
         id="circle4557"
         style="opacity:1;fill:#ffffff;fill-opacity:1;stroke:#ffffff;stroke-width:1.23899758;stroke-miterlimit:4;stroke-dasharray:none;stroke-dashoffset:0;stroke-opacity:1" /></mask></defs><sodipodi:namedview
     pagecolor="#ffffff"
     bordercolor="#666666"
     borderopacity="1"
     objecttolerance="10"
     gridtolerance="10"
     guidetolerance="10"
     inkscape:pageopacity="0"
     inkscape:pageshadow="2"
     inkscape:window-width="1600"
     inkscape:window-height="976"
     id="namedview8"
     showgrid="false"
     inkscape:pagecheckerboard="true"
     inkscape:zoom="7.375"
     inkscape:cx="11.254237"
     inkscape:cy="32.271186"
     inkscape:window-x="0"
     inkscape:window-y="0"
     inkscape:window-maximized="0"
     inkscape:current-layer="svg6" /><path
     transform="matrix(0.99998223,0,0,0.99998223,-16.491525,-1.4911263)"
     style="fill:#000000;fill-opacity:1;stroke-width:1.3174324"
     id="nuage"
     d="m 33.223306,7.4529815 c 3.583414,0 7.484336,2.6559445 7.386845,8.3854585 7.232705,0.847109 5.808557,10.058597 0.150189,10.058597 H 21.647032 c -5.433093,0 -7.576556,-8.236588 -1.455762,-10.592157 -0.604706,-3.281725 3.265916,-5.7519111 6.012757,-2.881224 0.628417,-1.347734 2.483363,-4.9706745 7.019279,-4.9706745 m 0,-1.3174318 c -3.185551,0 -5.966651,1.7785336 -7.475109,4.4265743 -2.948414,-1.9010562 -6.844062,0.255581 -6.869092,3.919361 -6.218281,3.056443 -4.085359,12.732985 2.767927,12.732985 H 40.76034 c 7.353903,0 8.326167,-11.074338 1.125084,-12.470817 C 41.699667,9.9574217 37.89229,6.1355497 33.223306,6.1355497 Z"
     inkscape:connector-curvature="0"
     mask="url(#mask4555)" /><path
     style="opacity:1;fill:none;fill-opacity:1;stroke:#000000;stroke-width:1.27600002;stroke-linecap:butt;stroke-miterlimit:4;stroke-dasharray:none;stroke-dashoffset:0;stroke-opacity:1"
     mask="none"
     d="M 7.0883122,30.222569 A 30.693485,30.693485 0 0 1 2.7214642,14.442892 30.693485,30.693485 0 0 1 4.9172752,3.0423379"
     id="path4519"
     inkscape:connector-curvature="0" /></svg>